<svg version="1.1" id="Layer_1" xmlns="http://www.w3.org/2000/svg" xmlns:xlink="http://www.w3.org/1999/xlink" x="0px" y="0px"
	 width="100%" viewBox="0 0 328 270" enable-background="new 0 0 328 270" xml:space="preserve">
<path fill="#000000" opacity="1.000000" stroke="none" 
	d="
M200.000000,271.000000 
	C133.333328,271.000000 67.166664,271.000000 1.000000,271.000000 
	C1.000000,181.000000 1.000000,91.000000 1.000000,1.000000 
	C110.333336,1.000000 219.666672,1.000000 329.000000,1.000000 
	C329.000000,91.000000 329.000000,181.000000 329.000000,271.000000 
	C286.166656,271.000000 243.333328,271.000000 200.000000,271.000000 
M203.323593,41.229359 
	C202.528595,42.799568 201.733597,44.369778 200.326187,46.299961 
	C198.533218,50.866154 196.740250,55.432350 194.999939,60.003513 
	C194.999939,60.003513 194.984131,59.953045 194.377823,60.237476 
	C194.321777,60.886410 194.265732,61.535347 194.088104,62.495674 
	C194.088104,62.495674 194.052673,62.828079 193.448212,63.187748 
	C193.371124,63.861225 193.294022,64.534698 193.098450,65.492317 
	C193.098450,65.492317 193.066147,65.798470 192.375992,66.201424 
	C191.644211,69.515625 190.912430,72.829826 189.821030,76.827698 
	C188.551270,83.243790 187.281525,89.659889 185.767166,96.749023 
	C185.507111,98.108185 185.247055,99.467346 184.420547,101.138931 
	C183.970383,101.385498 183.520218,101.632065 183.070053,101.878632 
	C182.081863,99.559380 181.093674,97.240135 180.025604,94.159157 
	C177.003250,87.043213 173.980911,79.927261 170.920334,72.091873 
	C169.321121,68.725098 167.721909,65.358315 166.026993,61.232838 
	C164.599091,57.962391 163.496292,54.497368 161.678543,51.460239 
	C157.305038,44.152897 151.178772,39.520130 141.182648,40.068726 
	C131.238968,40.760178 121.287323,41.356846 111.355629,42.191017 
	C107.528725,42.512436 103.747177,43.373768 99.260933,43.997082 
	C98.810829,44.061214 98.360718,44.125347 97.096382,44.122169 
	C93.302986,45.688755 89.010437,46.586338 85.822746,48.964725 
	C79.667282,53.557434 77.211899,60.760372 75.056625,67.839706 
	C74.064156,71.099655 73.767990,74.571587 73.047501,78.772530 
	C71.767693,87.880531 67.821312,96.611092 68.862244,106.654015 
	C68.554977,107.425072 68.247711,108.196136 67.469460,109.139191 
	C67.376175,109.436394 67.282890,109.733604 67.063065,110.895782 
	C66.842720,112.662674 66.600166,114.427116 66.405960,116.196884 
	C65.646271,123.119598 64.901863,130.044006 64.039024,137.788666 
	C64.096291,138.888412 64.153564,139.988174 64.052086,141.524521 
	C64.052086,141.524521 63.899044,141.963181 63.967583,141.977661 
	C63.967583,141.977661 63.964550,141.907669 63.280048,142.297943 
	C61.477062,154.524292 59.674072,166.750641 57.224571,179.474396 
	C56.962246,181.717636 56.697071,183.960541 56.438137,186.204178 
	C55.680832,192.766006 54.926014,199.328125 54.017063,206.565811 
	C53.978664,207.025711 53.940266,207.485611 53.222980,208.329941 
	C53.199017,209.880936 53.175053,211.431931 52.819244,213.718170 
	C51.597858,219.160965 50.376472,224.603745 49.006603,230.804306 
	C48.390388,233.177551 47.774174,235.550812 47.009624,238.697235 
	C43.431873,248.312103 39.854126,257.926971 36.276379,267.541840 
	C36.524147,267.856842 36.771919,268.171844 37.019691,268.486847 
	C45.479996,264.219940 53.940300,259.953033 62.591553,255.661575 
	C62.591553,255.661575 62.642998,255.476059 63.265121,255.164169 
	C66.851913,252.773865 70.438698,250.383575 73.988426,247.988586 
	C73.988426,247.988586 73.993019,248.025635 74.664566,247.786743 
	C83.629929,240.739319 92.452774,233.551437 98.671875,223.556046 
	C98.671875,223.556046 98.688408,223.361450 99.281403,223.066254 
	C100.215721,221.085022 101.150040,219.103790 102.701836,216.788849 
	C103.838531,214.538101 104.975235,212.287338 106.744484,209.728653 
	C107.534592,207.834839 108.324699,205.941010 109.532463,203.989670 
	C109.532463,203.989670 109.920944,203.825897 110.646400,203.689407 
	C111.444160,201.168839 112.241913,198.648285 113.696793,195.744034 
	C115.451241,189.020401 117.354576,182.330612 118.894302,175.558167 
	C119.612106,172.400909 119.625336,169.083496 120.002220,165.158798 
	C120.017632,164.476929 120.033043,163.795044 120.687744,162.709915 
	C121.157700,160.496964 121.627647,158.284012 122.767181,155.605179 
	C122.791801,153.408051 122.816422,151.210922 123.168732,148.367599 
	C123.387352,147.245987 123.605980,146.124374 123.962372,144.234421 
	C124.247353,142.493607 124.532333,140.752792 124.937599,138.347137 
	C124.897934,137.900192 124.858276,137.453262 125.241005,136.275085 
	C125.616745,133.147980 125.992485,130.020874 127.052917,126.968521 
	C127.514595,127.582947 128.134750,128.132904 128.414703,128.821228 
	C134.967621,144.932953 141.437256,161.078705 148.044418,177.167999 
	C149.426224,180.532883 151.290222,183.699722 153.013733,187.337204 
	C153.013733,187.337204 153.181534,187.687149 153.086594,188.351730 
	C153.719131,188.920181 154.351654,189.488632 155.000015,190.000443 
	C155.000015,190.000443 154.943192,190.015610 155.195740,190.701324 
	C158.060028,193.486023 161.304092,195.057892 165.278061,193.331909 
	C171.649094,190.564819 177.973541,187.689117 184.279297,184.776215 
	C184.674683,184.593552 184.737671,183.691330 185.687698,183.021027 
	C187.781998,181.946701 189.876312,180.872375 192.713333,179.944550 
	C198.151016,176.972031 203.588699,173.999512 209.720169,170.936188 
	C212.458557,168.684692 215.196945,166.433182 218.665924,164.032288 
	C219.910156,163.337753 221.391602,162.879852 222.359482,161.909637 
	C227.926834,156.328781 230.775742,149.290634 233.194153,141.206833 
	C235.057617,133.787048 236.921066,126.367279 239.158997,118.256927 
	C240.716156,110.516937 242.273300,102.776955 244.226730,94.316940 
	C246.816483,83.344910 249.423111,72.376808 251.978683,61.396820 
	C252.383484,59.657516 252.558075,57.864628 253.060608,55.525673 
	C253.391342,55.022079 253.722061,54.518486 254.668365,53.670681 
	C256.148956,50.458923 257.629517,47.247169 259.707520,43.690895 
	C260.183807,43.104542 260.722961,42.558151 261.125366,41.924862 
	C262.788025,39.308380 264.409271,36.665573 266.002625,33.998039 
	C266.002625,33.998039 266.035767,34.041168 266.726471,33.961468 
	C270.127167,30.854094 273.527893,27.746721 276.928589,24.639347 
	C276.731812,24.167725 276.535004,23.696102 276.338196,23.224480 
	C270.889496,22.860020 265.440765,22.495562 259.240631,21.759075 
	C238.960541,21.309433 218.999435,21.813387 204.454819,40.100391 
	C204.279877,40.378567 204.104935,40.656742 203.323593,41.229359 
z"/>
<path fill="#37B449" opacity="1.000000" stroke="none" 
	d="
M126.368225,126.893776 
	C125.992485,130.020874 125.616745,133.147980 124.648590,136.718796 
	C121.619186,137.250610 119.110619,137.753845 116.758751,137.348312 
	C109.932648,136.171265 103.205185,134.413437 96.372940,133.282761 
	C86.609245,131.666977 76.786919,130.405472 66.995331,128.557220 
	C67.547554,123.601471 68.252731,119.091537 68.549553,114.554886 
	C68.645859,113.082825 67.673271,111.540817 67.189606,110.030807 
	C67.282890,109.733604 67.376175,109.436394 67.997116,108.991943 
	C68.743332,107.927338 68.961891,107.009979 69.180466,106.092621 
	C67.821312,96.611092 71.767693,87.880531 73.346375,78.113129 
	C74.504745,74.970901 75.403282,72.500793 76.216652,70.002953 
	C79.045334,61.316101 81.969780,52.702641 91.140045,48.115181 
	C95.611862,52.179790 99.746864,56.129681 103.922089,60.449852 
	C106.949852,68.214294 109.937393,75.608459 112.946526,83.384972 
	C114.281982,87.176338 115.595840,90.585358 116.932503,94.383560 
	C120.045128,103.551765 123.134949,112.330788 126.269928,121.522736 
	C126.332794,123.588364 126.350510,125.241074 126.368225,126.893776 
z"/>
<path fill="#01ADEC" opacity="1.000000" stroke="none" 
	d="
M153.181534,187.687149 
	C153.181534,187.687149 153.013733,187.337204 153.004501,186.758911 
	C150.837585,180.468323 148.725449,174.738327 146.512863,169.047363 
	C141.707886,156.688583 136.851593,144.349731 132.447571,132.000671 
	C146.116440,131.665543 159.352722,131.260406 172.592041,131.025345 
	C181.065842,130.874908 181.656433,130.476196 182.979599,121.533669 
	C182.977173,118.724426 182.973083,116.358231 182.981781,113.564911 
	C183.096680,112.277359 183.198776,111.416924 183.596680,110.618645 
	C184.288925,110.747772 184.685333,110.814751 185.195312,111.074364 
	C185.308884,111.266998 185.331345,111.713661 185.217209,112.106621 
	C188.284210,120.764290 191.465332,129.028992 194.742340,137.605774 
	C195.572037,138.933228 196.305832,139.948593 197.214233,141.044662 
	C197.388855,141.125381 197.768723,141.186386 197.774780,141.493195 
	C197.874725,142.197922 197.968628,142.595840 197.902008,143.141266 
	C197.854492,143.860641 197.967514,144.432541 197.662170,145.024261 
	C193.177383,145.600479 188.919617,147.181412 185.090714,146.466232 
	C179.734116,145.465683 178.714386,148.075775 177.996964,152.386261 
	C177.670486,154.173813 177.359695,155.595856 176.977570,157.376465 
	C176.619858,159.161575 176.333481,160.588120 175.891937,162.347534 
	C175.489807,164.119919 175.242859,165.559418 174.778717,167.271118 
	C174.078278,169.364822 173.595047,171.186325 172.946075,173.336868 
	C170.794617,179.469162 168.808899,185.272430 166.485001,191.244095 
	C162.412277,190.946869 158.677734,190.481247 154.943192,190.015610 
	C154.943192,190.015610 155.000015,190.000443 154.964844,189.711182 
	C154.346954,188.843674 153.764252,188.265411 153.181534,187.687149 
z"/>
<path fill="#F4ED2F" opacity="1.000000" stroke="none" 
	d="
M47.157959,237.924057 
	C47.774174,235.550812 48.390388,233.177551 49.420876,230.305634 
	C51.239025,224.539017 52.642906,219.271057 54.463310,214.026154 
	C65.778625,215.715530 76.695221,217.276154 87.565941,219.108932 
	C91.082596,219.701813 94.478851,221.008850 98.084587,222.351685 
	C98.388794,222.929932 98.538597,223.145691 98.688408,223.361450 
	C98.688408,223.361450 98.671875,223.556046 98.233719,223.560730 
	C96.406754,224.716110 94.934624,225.780853 93.643456,227.032303 
	C87.834641,232.662262 82.032768,238.301208 76.341362,244.048752 
	C75.291046,245.109451 74.762436,246.686768 73.993027,248.025635 
	C73.993019,248.025635 73.988426,247.988586 73.632004,247.964722 
	C69.731392,250.452591 66.187195,252.964325 62.642998,255.476059 
	C62.642998,255.476059 62.591553,255.661575 62.141441,255.512054 
	C54.389061,258.513458 47.086792,261.664337 38.691265,265.286987 
	C41.760651,257.323730 44.448898,250.728653 46.795429,244.014175 
	C47.440811,242.167450 47.065117,239.963882 47.157959,237.924057 
z"/>
<path fill="#EA1D22" opacity="1.000000" stroke="none" 
	d="
M259.110107,44.035412 
	C257.629517,47.247169 256.148956,50.458923 254.092316,53.624832 
	C246.086456,49.690731 238.666397,45.783676 231.223694,41.920292 
	C225.494354,38.946285 219.736496,36.027168 214.263062,32.863899 
	C222.342819,29.837780 230.150848,27.031401 238.320618,24.419563 
	C247.250519,24.731142 255.820526,24.780266 264.385529,25.013788 
	C266.482422,25.070959 268.562866,25.731518 271.050446,26.187979 
	C268.976929,29.435186 267.506348,31.738180 266.035767,34.041168 
	C266.035767,34.041168 266.002625,33.998039 265.690643,34.085289 
	C263.289154,37.460163 261.199615,40.747787 259.110107,44.035412 
z"/>
<path fill="#0F75B8" opacity="1.000000" stroke="none" 
	d="
M166.122696,61.991543 
	C167.721909,65.358315 169.321121,68.725098 170.921600,72.860870 
	C170.986771,74.712296 171.050690,75.794739 170.634857,76.913834 
	C158.097610,76.969589 146.040085,76.988678 133.955963,76.575562 
	C134.072311,74.142174 134.215271,72.140984 134.523636,69.805305 
	C137.043671,59.860817 137.617386,49.558487 145.555115,42.034294 
	C145.757462,42.028297 146.156555,41.960281 146.513138,42.001930 
	C153.537949,43.763687 158.093796,48.067493 161.416077,53.900032 
	C162.960388,56.611191 164.552338,59.295216 166.122696,61.991543 
z"/>
<path fill="#127044" opacity="1.000000" stroke="none" 
	d="
M145.352783,42.040295 
	C137.617386,49.558487 137.043671,59.860817 134.136963,69.718597 
	C132.651489,69.325821 131.041382,68.810799 130.895447,68.024147 
	C130.002853,63.212818 126.248940,62.673916 122.525238,61.879585 
	C121.409958,61.641678 120.384865,60.761887 119.287483,60.696575 
	C114.158203,60.391312 109.018105,60.267948 103.881866,60.079571 
	C99.746864,56.129681 95.611862,52.179790 91.363899,47.812462 
	C93.470833,46.326511 95.690720,45.257999 97.910614,44.189484 
	C98.360718,44.125347 98.810829,44.061214 99.975906,44.140884 
	C102.464699,44.430420 104.252518,44.797623 106.010109,44.686562 
	C119.127701,43.857693 132.239304,42.934158 145.352783,42.040295 
z"/>
<path fill="#079FD8" opacity="1.000000" stroke="none" 
	d="
M132.016281,132.002731 
	C136.851593,144.349731 141.707886,156.688583 146.512863,169.047363 
	C148.725449,174.738327 150.837585,180.468323 152.963654,186.569214 
	C151.290222,183.699722 149.426224,180.532883 148.044418,177.167999 
	C141.437256,161.078705 134.967621,144.932953 128.414703,128.821228 
	C128.134750,128.132904 127.514595,127.582947 126.710571,126.931152 
	C126.350510,125.241074 126.332794,123.588364 126.463417,121.221443 
	C127.091637,118.336922 127.571518,116.166618 128.474182,113.992577 
	C133.842194,113.659935 138.791031,113.009300 143.731979,113.064468 
	C156.812820,113.210571 169.890228,113.662064 182.969009,113.992027 
	C182.973083,116.358231 182.977173,118.724426 182.571518,121.614632 
	C179.868576,122.424210 177.576721,122.943520 175.281937,122.956902 
	C161.810745,123.035431 148.338821,122.983902 134.867233,123.010902 
	C133.139526,123.014366 131.412201,123.219131 129.009872,123.374214 
	C130.186493,126.751175 131.101395,129.376953 132.016281,132.002731 
z"/>
<path fill="#F09420" opacity="1.000000" stroke="none" 
	d="
M243.830475,95.036972 
	C242.273300,102.776955 240.716156,110.516937 238.770477,118.601746 
	C238.381958,118.946564 237.980042,118.923569 237.985535,118.497238 
	C239.075867,112.848137 236.401672,110.429962 231.864700,108.356232 
	C219.760849,102.823891 207.841705,96.876747 195.955536,90.883446 
	C189.995346,87.878174 187.701004,89.020996 186.767395,95.976875 
	C186.347412,96.030518 186.179596,96.053253 186.011765,96.075981 
	C187.281525,89.659889 188.551270,83.243790 190.212708,76.472900 
	C190.604401,76.118095 191.028091,76.095871 191.021545,76.484665 
	C191.771759,78.326111 192.154068,80.516251 193.342087,81.119400 
	C208.169632,88.647217 223.099869,95.974396 238.089920,103.173607 
	C238.593155,103.415291 240.003494,101.768265 241.139862,100.673645 
	C241.822311,98.576042 242.355881,96.806404 243.124695,95.034943 
	C243.359955,95.033119 243.830475,95.036972 243.830475,95.036972 
z"/>
<path fill="#F5AF1A" opacity="1.000000" stroke="none" 
	d="
M237.980042,118.923569 
	C237.980042,118.923569 238.381958,118.946564 238.583252,118.947037 
	C236.921066,126.367279 235.057617,133.787048 232.678619,141.555725 
	C231.767700,141.918365 231.372345,141.932144 231.001556,141.580933 
	C231.658051,139.145081 232.289932,137.074234 233.095245,134.646851 
	C235.006927,129.875854 234.192673,126.572845 229.342117,124.844528 
	C227.017853,124.016365 224.713715,123.074654 222.516632,121.956169 
	C211.427032,116.310669 200.392654,110.556473 189.287537,104.941948 
	C188.022202,104.302223 186.435471,104.298172 184.964706,103.603073 
	C184.950089,102.413353 184.968552,101.619926 184.987000,100.826508 
	C185.247055,99.467346 185.507111,98.108185 185.889465,96.412506 
	C186.179596,96.053253 186.347412,96.030518 187.107422,96.056549 
	C190.099976,97.553841 192.410629,99.184235 194.915894,100.420189 
	C207.383316,106.570946 219.869080,112.687729 232.444748,118.611870 
	C233.994812,119.342072 236.120895,118.849503 237.980042,118.923569 
z"/>
<path fill="#F17320" opacity="1.000000" stroke="none" 
	d="
M194.052673,62.828079 
	C194.052673,62.828079 194.088104,62.495674 194.348602,62.103516 
	C194.734116,61.125256 194.859116,60.539150 194.984131,59.953045 
	C194.984131,59.953045 194.999939,60.003513 195.234085,59.906490 
	C195.937500,59.515682 196.406754,59.221897 197.205780,59.088638 
	C207.840546,64.234993 218.076797,69.370583 228.478043,74.146812 
	C234.128082,76.741287 240.058777,78.724525 245.752914,81.337692 
	C245.081879,84.455246 244.520798,87.218559 243.603928,89.925476 
	C229.331055,83.162033 215.439682,76.400589 201.473343,69.797752 
	C198.936111,68.598228 196.092102,68.047554 193.320435,66.844940 
	C193.189484,66.261177 193.127808,66.029823 193.066147,65.798470 
	C193.066147,65.798470 193.098450,65.492317 193.368622,65.099136 
	C193.776764,64.080002 193.914719,63.454041 194.052673,62.828079 
z"/>
<path fill="#7CC245" opacity="1.000000" stroke="none" 
	d="
M120.048462,163.113174 
	C120.033043,163.795044 120.017632,164.476929 119.732498,165.545898 
	C119.295906,165.955521 119.129036,165.978043 118.572067,165.979630 
	C115.794403,165.310013 113.441177,164.460785 111.013718,164.045181 
	C95.015358,161.306030 79.001007,158.660233 62.997803,155.605881 
	C63.314796,153.814804 63.625858,152.401871 64.274544,151.125397 
	C71.633179,152.070953 78.668312,152.774780 85.671837,153.714264 
	C95.677795,155.056549 105.638428,156.766022 115.665085,157.909393 
	C119.293961,158.323196 120.163017,160.051849 120.048462,163.113174 
z"/>
<path fill="#DCE33A" opacity="1.000000" stroke="none" 
	d="
M53.901863,207.945511 
	C53.940266,207.485611 53.978664,207.025711 54.300049,205.980652 
	C55.059364,203.921783 55.535694,202.448074 56.449139,200.981079 
	C67.627800,202.502182 78.408432,203.788803 89.095207,205.622437 
	C94.850479,206.609909 100.444923,208.534698 106.111923,210.036575 
	C104.975235,212.287338 103.838531,214.538101 102.143982,216.947327 
	C101.586136,217.105789 101.086990,217.131348 101.110748,216.792862 
	C101.223442,215.541901 101.312378,214.629410 101.351524,214.227798 
	C85.280571,212.100021 69.591217,210.022766 53.901863,207.945511 
z"/>
<path fill="#C9DB3B" opacity="1.000000" stroke="none" 
	d="
M109.920944,203.825897 
	C109.920944,203.825897 109.532463,203.989670 108.917786,203.989105 
	C91.191902,201.313416 74.080696,198.638306 56.977890,195.575958 
	C57.331425,193.451736 57.676563,191.714767 58.475658,189.985168 
	C63.218800,190.331985 67.541016,190.441910 71.791000,191.053619 
	C84.868019,192.935837 97.917412,195.010010 110.964409,197.356903 
	C110.607834,199.744797 110.264389,201.785339 109.920944,203.825897 
z"/>
<path fill="#0F75B8" opacity="1.000000" stroke="none" 
	d="
M166.823181,191.075699 
	C168.808899,185.272430 170.794617,179.469162 173.301956,173.258270 
	C175.671097,172.276306 177.521576,171.209335 179.365616,171.220383 
	C184.793182,171.252853 190.231079,171.577255 195.636002,172.091492 
	C197.176331,172.238037 198.617920,173.422241 199.903946,174.406067 
	C197.125610,176.387039 194.548126,178.092560 191.970627,179.798065 
	C189.876312,180.872375 187.781998,181.946701 184.976074,183.118530 
	C178.450699,185.835922 172.636932,188.455811 166.823181,191.075699 
z"/>
<path fill="#EAE831" opacity="1.000000" stroke="none" 
	d="
M53.562420,208.137726 
	C69.591217,210.022766 85.280571,212.100021 101.351524,214.227798 
	C101.312378,214.629410 101.223442,215.541901 100.960739,217.073410 
	C99.834717,219.124695 98.882446,220.556961 97.930176,221.989212 
	C94.478851,221.008850 91.082596,219.701813 87.565941,219.108932 
	C76.695221,217.276154 65.778625,215.715530 54.341286,213.832977 
	C53.621498,213.368469 53.404285,213.157196 53.151085,212.982925 
	C53.175053,211.431931 53.199017,209.880936 53.562420,208.137726 
z"/>
<path fill="#68BD46" opacity="1.000000" stroke="none" 
	d="
M122.841049,149.013794 
	C122.816422,151.210922 122.791801,153.408051 122.047333,155.795792 
	C115.450630,154.562546 109.634888,152.765488 103.684425,151.791061 
	C90.530014,149.636932 77.307823,147.896667 64.084122,145.580566 
	C64.024826,144.084930 63.994690,142.996292 63.964554,141.907669 
	C63.964550,141.907669 63.967583,141.977661 64.182999,141.966919 
	C64.398407,141.956192 64.897263,141.968674 65.367920,141.976227 
	C82.897087,144.410187 99.951073,146.869598 117.020500,149.216568 
	C118.915565,149.477127 120.898735,149.096863 122.841049,149.013794 
z"/>
<path fill="#D4E038" opacity="1.000000" stroke="none" 
	d="
M56.969498,195.963196 
	C74.080696,198.638306 91.191902,201.313416 108.708961,204.017853 
	C108.324699,205.941010 107.534592,207.834839 106.428207,209.882614 
	C100.444923,208.534698 94.850479,206.609909 89.095207,205.622437 
	C78.408432,203.788803 67.627800,202.502182 56.436867,200.601059 
	C56.314823,198.797272 56.642162,197.380234 56.969498,195.963196 
z"/>
<path fill="#73C046" opacity="1.000000" stroke="none" 
	d="
M64.113281,145.987579 
	C77.307823,147.896667 90.530014,149.636932 103.684425,151.791061 
	C109.634888,152.765488 115.450630,154.562546 121.712540,156.028732 
	C121.627647,158.284012 121.157700,160.496964 120.368103,162.911545 
	C120.163017,160.051849 119.293961,158.323196 115.665085,157.909393 
	C105.638428,156.766022 95.677795,155.056549 85.671837,153.714264 
	C78.668312,152.774780 71.633179,152.070953 64.287964,150.708893 
	C64.013603,148.766479 64.063438,147.377029 64.113281,145.987579 
z"/>
<path fill="#47B648" opacity="1.000000" stroke="none" 
	d="
M66.989632,128.992661 
	C76.786919,130.405472 86.609245,131.666977 96.372940,133.282761 
	C103.205185,134.413437 109.932648,136.171265 116.758751,137.348312 
	C119.110619,137.753845 121.619186,137.250610 124.437393,137.084412 
	C124.858276,137.453262 124.897934,137.900192 124.546082,138.802063 
	C121.877693,140.153046 119.510872,141.984497 117.340240,141.775772 
	C109.802879,141.050980 102.334229,139.614014 94.838287,138.455399 
	C85.230957,136.970459 75.622505,135.492752 66.008453,134.006714 
	C66.002373,134.001480 65.993629,133.997864 65.955490,133.698166 
	C66.274773,131.929871 66.632202,130.461258 66.989632,128.992661 
z"/>
<path fill="#52B947" opacity="1.000000" stroke="none" 
	d="
M66.014542,134.011932 
	C75.622505,135.492752 85.230957,136.970459 94.838287,138.455399 
	C102.334229,139.614014 109.802879,141.050980 117.340240,141.775772 
	C119.510872,141.984497 121.877693,140.153046 124.485939,139.134476 
	C124.532333,140.752792 124.247353,142.493607 123.573769,144.717072 
	C121.399040,145.440826 119.571365,146.038940 117.836807,145.837021 
	C115.404251,145.553848 113.074089,144.457916 110.642578,144.087814 
	C96.969315,142.006561 83.291473,139.943893 69.583664,138.110611 
	C66.772530,137.734650 65.782578,136.620972 66.014542,134.011932 
z"/>
<path fill="#5CBA48" opacity="1.000000" stroke="none" 
	d="
M66.008453,134.006714 
	C65.782578,136.620972 66.772530,137.734650 69.583664,138.110611 
	C83.291473,139.943893 96.969315,142.006561 110.642578,144.087814 
	C113.074089,144.457916 115.404251,145.553848 117.836807,145.837021 
	C119.571365,146.038940 121.399040,145.440826 123.504883,145.101227 
	C123.605980,146.124374 123.387352,147.245987 123.004890,148.690704 
	C120.898735,149.096863 118.915565,149.477127 117.020500,149.216568 
	C99.951073,146.869598 82.897087,144.410187 65.284683,141.807877 
	C64.591118,141.418472 64.417801,141.237122 64.210831,141.087921 
	C64.153564,139.988174 64.096291,138.888412 64.291153,137.156357 
	C65.026733,135.681976 65.510178,134.839920 65.993622,133.997864 
	C65.993629,133.997864 66.002373,134.001480 66.008453,134.006714 
z"/>
<path fill="#EB2922" opacity="1.000000" stroke="none" 
	d="
M213.991333,33.083641 
	C219.736496,36.027168 225.494354,38.946285 231.223694,41.920292 
	C238.666397,45.783676 246.086456,49.690731 253.784531,53.796940 
	C253.722061,54.518486 253.391342,55.022079 252.785004,55.806919 
	C252.509399,56.088165 252.179626,56.080982 251.790771,56.045715 
	C250.303101,55.678329 249.132401,55.491970 248.116684,54.991241 
	C239.266830,50.628448 230.478409,46.139828 221.598602,41.839573 
	C217.792465,39.996368 213.813446,38.510185 210.082626,36.597897 
	C211.498627,35.250553 212.744980,34.167095 213.991333,33.083641 
z"/>
<path fill="#E5E423" opacity="1.000000" stroke="none" 
	d="
M230.976990,141.945923 
	C231.372345,141.932144 231.767700,141.918365 232.457657,141.864090 
	C230.775742,149.290634 227.926834,156.328781 222.359482,161.909637 
	C221.391602,162.879852 219.910156,163.337753 217.996262,164.015778 
	C216.703125,163.897354 216.079666,163.795441 215.399017,163.678772 
	C215.341858,163.664032 215.269302,163.757187 215.068481,163.484589 
	C213.299805,162.363327 211.731934,161.514664 210.193451,160.335007 
	C208.650360,158.255249 207.077896,156.506500 205.490692,154.763092 
	C205.475967,154.768433 205.455612,154.748505 205.405060,154.446564 
	C204.914810,153.747498 204.475128,153.350372 204.016754,152.974228 
	C203.998062,152.995209 204.050827,152.976166 204.007599,152.669067 
	C203.681976,152.075104 203.399551,151.788223 203.095688,151.314514 
	C203.074234,151.127701 202.733200,150.969116 202.789856,150.722107 
	C202.904190,150.316269 202.961868,150.157455 203.377899,150.038940 
	C209.094376,152.530060 214.381790,155.163300 219.865921,157.289047 
	C221.068756,157.755280 223.504333,156.871780 224.425049,155.797821 
	C225.741592,154.262177 226.185944,151.978775 227.252319,149.789551 
	C228.331207,147.706207 229.160553,145.847977 230.198425,143.785583 
	C230.596939,143.036255 230.786972,142.491089 230.976990,141.945923 
z"/>
<path fill="#D72728" opacity="1.000000" stroke="none" 
	d="
M266.381104,34.001320 
	C267.506348,31.738180 268.976929,29.435186 271.050446,26.187979 
	C268.562866,25.731518 266.482422,25.070959 264.385529,25.013788 
	C255.820526,24.780266 247.250519,24.731142 238.752472,24.347263 
	C245.879074,23.430653 252.935562,22.780878 259.992065,22.131104 
	C265.440765,22.495562 270.889496,22.860020 276.338196,23.224480 
	C276.535004,23.696102 276.731812,24.167725 276.928589,24.639347 
	C273.527893,27.746721 270.127167,30.854094 266.381104,34.001320 
z"/>
<path fill="#B6DA62" opacity="1.000000" stroke="none" 
	d="
M47.083794,238.310638 
	C47.065117,239.963882 47.440811,242.167450 46.795429,244.014175 
	C44.448898,250.728653 41.760651,257.323730 38.691265,265.286987 
	C47.086792,261.664337 54.389061,258.513458 62.045967,255.524338 
	C53.940300,259.953033 45.479996,264.219940 37.019691,268.486847 
	C36.771919,268.171844 36.524147,267.856842 36.276379,267.541840 
	C39.854126,257.926971 43.431873,248.312103 47.083794,238.310638 
z"/>
<path fill="#BF754B" opacity="1.000000" stroke="none" 
	d="
M259.616333,21.945089 
	C252.935562,22.780878 245.879074,23.430653 238.390732,24.152725 
	C230.150848,27.031401 222.342819,29.837780 214.263062,32.863899 
	C212.744980,34.167095 211.498627,35.250553 209.833313,36.751305 
	C208.911560,37.756172 208.408768,38.343742 207.644394,39.076389 
	C206.681274,39.596233 205.979706,39.970997 205.191956,40.240211 
	C205.105759,40.134659 204.929092,39.927128 204.929092,39.927128 
	C218.999435,21.813387 238.960541,21.309433 259.616333,21.945089 
z"/>
<path fill="#56B26B" opacity="1.000000" stroke="none" 
	d="
M97.503494,44.155827 
	C95.690720,45.257999 93.470833,46.326511 91.027084,47.697746 
	C81.969780,52.702641 79.045334,61.316101 76.216652,70.002953 
	C75.403282,72.500793 74.504745,74.970901 73.400681,77.700562 
	C73.767990,74.571587 74.064156,71.099655 75.056625,67.839706 
	C77.211899,60.760372 79.667282,53.557434 85.822746,48.964725 
	C89.010437,46.586338 93.302986,45.688755 97.503494,44.155827 
z"/>
<path fill="#439265" opacity="1.000000" stroke="none" 
	d="
M145.555115,42.034294 
	C132.239304,42.934158 119.127701,43.857693 106.010109,44.686562 
	C104.252518,44.797623 102.464699,44.430420 100.317917,44.136894 
	C103.747177,43.373768 107.528725,42.512436 111.355629,42.191017 
	C121.287323,41.356846 131.238968,40.760178 141.897766,40.314938 
	C143.794113,41.027527 144.975342,41.493904 146.156555,41.960281 
	C146.156555,41.960281 145.757462,42.028297 145.555115,42.034294 
z"/>
<path fill="#B6DA62" opacity="1.000000" stroke="none" 
	d="
M74.328796,247.906189 
	C74.762436,246.686768 75.291046,245.109451 76.341362,244.048752 
	C82.032768,238.301208 87.834641,232.662262 93.643456,227.032303 
	C94.934624,225.780853 96.406754,224.716110 98.140457,223.589661 
	C92.452774,233.551437 83.629929,240.739319 74.328796,247.906189 
z"/>
<path fill="#87C66B" opacity="1.000000" stroke="none" 
	d="
M64.084122,145.580566 
	C64.063438,147.377029 64.013603,148.766479 63.950340,150.572418 
	C63.625858,152.401871 63.314796,153.814804 62.764351,155.891052 
	C62.379181,158.026657 62.233391,159.498947 62.040661,161.364594 
	C61.669155,163.824142 61.344597,165.890305 60.858421,168.307297 
	C60.486458,170.444092 60.276115,172.230072 59.913498,174.302216 
	C59.530220,175.407028 59.299210,176.225647 59.051079,177.357315 
	C59.022297,178.087112 59.010639,178.503876 58.716995,178.934601 
	C58.247036,178.958023 58.059055,178.967514 57.871078,178.976990 
	C59.674072,166.750641 61.477062,154.524292 63.622299,142.102814 
	C63.994690,142.996292 64.024826,144.084930 64.084122,145.580566 
z"/>
<path fill="#BF754B" opacity="1.000000" stroke="none" 
	d="
M252.179626,56.080978 
	C252.179626,56.080982 252.509399,56.088165 252.674255,56.092339 
	C252.558075,57.864628 252.383484,59.657516 251.978683,61.396820 
	C249.423111,72.376808 246.816483,83.344910 244.028595,94.676956 
	C243.830475,95.036972 243.359955,95.033119 243.165939,94.661636 
	C243.301193,92.854057 243.630447,91.417969 243.959717,89.981880 
	C244.520798,87.218559 245.081879,84.455246 245.801880,80.939865 
	C245.974884,79.119576 245.988937,78.051346 246.085007,76.621979 
	C246.766724,73.839691 247.366440,71.418533 248.055252,68.649826 
	C249.052505,65.857574 249.960648,63.412872 250.973831,60.620522 
	C251.445786,58.875572 251.812698,57.478275 252.179626,56.080978 
z"/>
<path fill="#359EA8" opacity="1.000000" stroke="none" 
	d="
M166.484985,191.244095 
	C172.636932,188.455811 178.450699,185.835922 184.609894,183.169968 
	C184.737671,183.691330 184.674683,184.593552 184.279297,184.776215 
	C177.973541,187.689117 171.649094,190.564819 165.278061,193.331909 
	C161.304092,195.057892 158.060028,193.486023 155.069458,190.358459 
	C158.677734,190.481247 162.412277,190.946869 166.484985,191.244095 
z"/>
<path fill="#87C66B" opacity="1.000000" stroke="none" 
	d="
M118.962173,166.000580 
	C119.129036,165.978043 119.295906,165.955521 119.710358,165.885834 
	C119.625336,169.083496 119.612106,172.400909 118.894302,175.558167 
	C117.354576,182.330612 115.451241,189.020401 113.368401,195.545090 
	C113.039337,194.565399 113.038666,193.784653 113.075745,192.755981 
	C113.122749,192.341125 113.131989,192.174194 113.353523,191.714188 
	C113.766655,189.965958 113.967484,188.510803 114.376541,186.794846 
	C115.048996,185.027023 115.513214,183.520004 116.001801,181.642700 
	C116.348686,179.845016 116.671211,178.417618 117.011559,176.606415 
	C117.362045,174.477615 117.694725,172.732651 118.093781,170.630280 
	C118.427498,168.848770 118.694839,167.424683 118.962173,166.000580 
z"/>
<path fill="#4C8E99" opacity="1.000000" stroke="none" 
	d="
M146.513138,42.001930 
	C144.975342,41.493904 143.794113,41.027527 142.362854,40.366589 
	C151.178772,39.520130 157.305038,44.152897 161.678543,51.460239 
	C163.496292,54.497368 164.599091,57.962391 166.074844,61.612190 
	C164.552338,59.295216 162.960388,56.611191 161.416077,53.900032 
	C158.093796,48.067493 153.537949,43.763687 146.513138,42.001930 
z"/>
<path fill="#56B26B" opacity="1.000000" stroke="none" 
	d="
M65.955482,133.698166 
	C65.510178,134.839920 65.026733,135.681976 64.347534,136.745911 
	C64.901863,130.044006 65.646271,123.119598 66.405960,116.196884 
	C66.600166,114.427116 66.842720,112.662674 67.126335,110.463295 
	C67.673271,111.540817 68.645859,113.082825 68.549553,114.554886 
	C68.252731,119.091537 67.547554,123.601471 66.995331,128.557220 
	C66.632202,130.461258 66.274773,131.929871 65.955482,133.698166 
z"/>
<path fill="#B6DA62" opacity="1.000000" stroke="none" 
	d="
M57.547825,179.225693 
	C58.059055,178.967514 58.247036,178.958023 58.728218,179.360077 
	C59.008083,181.178024 58.994747,182.584427 58.960487,184.371735 
	C58.633610,186.494354 58.327652,188.236084 58.021698,189.977798 
	C57.676563,191.714767 57.331425,193.451736 56.977894,195.575958 
	C56.642162,197.380234 56.314823,198.797272 55.999756,200.594330 
	C55.535694,202.448074 55.059364,203.921783 54.376629,205.642807 
	C54.926014,199.328125 55.680832,192.766006 56.438137,186.204178 
	C56.697071,183.960541 56.962246,181.717636 57.547825,179.225693 
z"/>
<path fill="#359EA8" opacity="1.000000" stroke="none" 
	d="
M184.703781,100.982719 
	C184.968552,101.619926 184.950089,102.413353 184.779083,104.009842 
	C184.778275,106.835854 184.930008,108.858795 185.081757,110.881729 
	C184.685333,110.814751 184.288925,110.747772 183.689880,110.364960 
	C182.650467,107.695351 181.813660,105.341576 180.982544,102.617981 
	C180.309677,100.171822 179.631088,98.095474 178.975372,95.767677 
	C179.015518,95.348793 179.032791,95.181358 179.314377,94.995674 
	C179.754288,94.958580 179.929886,94.939735 180.105484,94.920883 
	C181.093674,97.240135 182.081863,99.559380 183.070053,101.878632 
	C183.520218,101.632065 183.970383,101.385498 184.703781,100.982719 
z"/>
<path fill="#4C8E99" opacity="1.000000" stroke="none" 
	d="
M180.065552,94.540024 
	C179.929886,94.939735 179.754288,94.958580 179.161163,94.670700 
	C177.578964,91.883492 176.414276,89.403023 175.199417,86.545212 
	C174.102234,83.444252 173.055237,80.720642 171.896683,77.779480 
	C171.606918,77.273560 171.360016,77.067558 171.070343,76.936127 
	C171.096298,76.928345 171.114594,76.877174 171.114594,76.877174 
	C171.050690,75.794739 170.986771,74.712296 170.940720,73.220581 
	C173.980911,79.927261 177.003250,87.043213 180.065552,94.540024 
z"/>
<path fill="#DCE33A" opacity="1.000000" stroke="none" 
	d="
M52.985165,213.350555 
	C53.404285,213.157196 53.621498,213.368469 53.924755,213.809921 
	C52.642906,219.271057 51.239025,224.539017 49.495117,229.926758 
	C50.376472,224.603745 51.597858,219.160965 52.985165,213.350555 
z"/>
<path fill="#359EA8" opacity="1.000000" stroke="none" 
	d="
M192.341980,179.871307 
	C194.548126,178.092560 197.125610,176.387039 200.245331,174.312363 
	C203.465195,172.894165 206.142807,171.845139 208.871857,170.853882 
	C208.923294,170.911652 209.026382,171.026993 209.026382,171.026993 
	C203.588699,173.999512 198.151016,176.972031 192.341980,179.871307 
z"/>
<path fill="#D72728" opacity="1.000000" stroke="none" 
	d="
M259.408813,43.863152 
	C261.199615,40.747787 263.289154,37.460163 265.712189,34.102489 
	C264.409271,36.665573 262.788025,39.308380 261.125366,41.924862 
	C260.722961,42.558151 260.183807,43.104542 259.408813,43.863152 
z"/>
<path fill="#B6DA62" opacity="1.000000" stroke="none" 
	d="
M62.954063,255.320114 
	C66.187195,252.964325 69.731392,250.452591 73.650543,247.967072 
	C70.438698,250.383575 66.851913,252.773865 62.954063,255.320114 
z"/>
<path fill="#BF754B" opacity="1.000000" stroke="none" 
	d="
M196.876022,58.928116 
	C196.406754,59.221897 195.937500,59.515682 195.207764,59.904007 
	C196.740250,55.432350 198.533218,50.866154 200.727234,46.211288 
	C201.128265,46.122612 201.318039,46.305122 201.224030,46.647903 
	C200.346588,49.297539 199.563156,51.604397 198.559296,54.170258 
	C197.851257,55.928883 197.363647,57.428497 196.876022,58.928116 
z"/>
<path fill="#B3D341" opacity="1.000000" stroke="none" 
	d="
M113.037994,193.003906 
	C113.038666,193.784653 113.039337,194.565399 113.039841,195.736938 
	C112.241913,198.648285 111.444160,201.168839 110.283676,203.757660 
	C110.264389,201.785339 110.607834,199.744797 111.106148,197.059998 
	C111.853340,195.278488 112.445671,194.141190 113.037994,193.003906 
z"/>
<path fill="#359EA8" opacity="1.000000" stroke="none" 
	d="
M215.456177,163.693512 
	C216.079666,163.795441 216.703125,163.897354 217.630966,164.090485 
	C215.196945,166.433182 212.458557,168.684692 209.373276,170.981598 
	C209.026382,171.026993 208.923294,170.911652 208.977448,170.576462 
	C209.695602,169.494156 210.359573,168.747040 211.274841,167.890778 
	C212.003952,167.513443 212.481766,167.245239 213.181152,166.866547 
	C213.668198,166.550751 213.880753,166.300507 214.300598,165.779617 
	C214.859238,164.933792 215.157700,164.313644 215.456177,163.693512 
z"/>
<path fill="#BF754B" opacity="1.000000" stroke="none" 
	d="
M192.721069,65.999947 
	C193.127808,66.029823 193.189484,66.261177 193.214249,67.207916 
	C192.771896,69.933388 192.366440,71.943466 191.761505,74.176369 
	C191.384033,74.964745 191.206055,75.530304 191.028091,76.095871 
	C191.028091,76.095871 190.604401,76.118095 190.392517,76.131058 
	C190.912430,72.829826 191.644211,69.515625 192.721069,65.999947 
z"/>
<path fill="#B6DA62" opacity="1.000000" stroke="none" 
	d="
M98.084587,222.351685 
	C98.882446,220.556961 99.834717,219.124695 100.936989,217.411896 
	C101.086990,217.131348 101.586136,217.105789 101.835251,217.114166 
	C101.150040,219.103790 100.215721,221.085022 98.984909,223.213852 
	C98.538597,223.145691 98.388794,222.929932 98.084587,222.351685 
z"/>
<path fill="#BF754B" opacity="1.000000" stroke="none" 
	d="
M201.033432,46.031296 
	C201.733597,44.369778 202.528595,42.799568 203.754242,41.182755 
	C204.184906,41.136154 204.443436,41.332703 204.330902,41.645142 
	C203.769089,43.229782 203.319794,44.501984 202.608536,45.854698 
	C202.003723,46.058514 201.660889,46.181816 201.318039,46.305122 
	C201.318039,46.305122 201.128265,46.122612 201.033432,46.031296 
z"/>
<path fill="#56B26B" opacity="1.000000" stroke="none" 
	d="
M69.021347,106.373322 
	C68.961891,107.009979 68.743332,107.927338 68.232605,108.905945 
	C68.247711,108.196136 68.554977,107.425072 69.021347,106.373322 
z"/>
<path fill="#359EA8" opacity="1.000000" stroke="none" 
	d="
M153.134064,188.019440 
	C153.764252,188.265411 154.346954,188.843674 154.956924,189.739517 
	C154.351654,189.488632 153.719131,188.920181 153.134064,188.019440 
z"/>
<path fill="#BF754B" opacity="1.000000" stroke="none" 
	d="
M194.680969,60.095261 
	C194.859116,60.539150 194.734116,61.125256 194.409393,61.947823 
	C194.265732,61.535347 194.321777,60.886410 194.680969,60.095261 
z"/>
<path fill="#BF754B" opacity="1.000000" stroke="none" 
	d="
M193.750443,63.007912 
	C193.914719,63.454041 193.776764,64.080002 193.427872,64.957069 
	C193.294022,64.534698 193.371124,63.861225 193.750443,63.007912 
z"/>
<path fill="#87C66B" opacity="1.000000" stroke="none" 
	d="
M64.131454,141.306213 
	C64.417801,141.237122 64.591118,141.418472 64.814026,141.800323 
	C64.897263,141.968674 64.398407,141.956192 64.148727,141.959686 
	C63.899044,141.963181 64.052086,141.524521 64.131454,141.306213 
z"/>
<path fill="#BF754B" opacity="1.000000" stroke="none" 
	d="
M204.057465,41.035538 
	C204.104935,40.656742 204.279877,40.378567 204.691956,40.013760 
	C204.929092,39.927128 205.105759,40.134659 205.048355,40.400185 
	C204.802521,40.883190 204.620026,41.105518 204.443436,41.332703 
	C204.443436,41.332703 204.184906,41.136154 204.057465,41.035538 
z"/>
<path fill="#197247" opacity="1.000000" stroke="none" 
	d="
M103.922089,60.449852 
	C109.018105,60.267948 114.158203,60.391312 119.287483,60.696575 
	C120.384865,60.761887 121.409958,61.641678 122.525238,61.879585 
	C126.248940,62.673916 130.002853,63.212818 130.895447,68.024147 
	C131.041382,68.810799 132.651489,69.325821 133.971542,70.053085 
	C134.215271,72.140984 134.072311,74.142174 133.793457,76.886261 
	C133.311356,78.750755 132.965164,79.872345 132.289276,81.132690 
	C129.492462,81.845161 127.048569,82.736420 124.552826,82.919075 
	C120.695480,83.201385 116.802689,82.999290 112.924927,83.002625 
	C109.937393,75.608459 106.949852,68.214294 103.922089,60.449852 
z"/>
<path fill="#04874F" opacity="1.000000" stroke="none" 
	d="
M128.051392,113.996315 
	C127.571518,116.166618 127.091637,118.336922 126.418266,120.808517 
	C123.134949,112.330788 120.045128,103.551765 117.400620,94.384933 
	C122.150230,93.658943 126.454521,93.320755 130.877136,93.238342 
	C131.064087,93.668571 131.132721,93.843010 131.077667,94.410797 
	C130.560211,97.856682 130.166443,100.909218 129.604889,104.315659 
	C128.975204,107.778481 128.513306,110.887398 128.051392,113.996315 
z"/>
<path fill="#137B4A" opacity="1.000000" stroke="none" 
	d="
M130.758820,92.982567 
	C126.454521,93.320755 122.150230,93.658943 117.377823,93.995750 
	C115.595840,90.585358 114.281982,87.176338 112.946526,83.384972 
	C116.802689,82.999290 120.695480,83.201385 124.552826,82.919075 
	C127.048569,82.736420 129.492462,81.845161 132.345413,81.468979 
	C132.627853,82.785667 132.524460,83.904816 132.299500,85.414322 
	C131.704895,88.197311 131.231857,90.589943 130.758820,92.982567 
z"/>
<path fill="#0093D6" opacity="1.000000" stroke="none" 
	d="
M128.474182,113.992577 
	C128.513306,110.887398 128.975204,107.778481 130.076553,104.327408 
	C147.469620,103.652771 164.223236,103.320282 180.976837,102.987793 
	C181.813660,105.341576 182.650467,107.695351 183.394073,110.302811 
	C183.198776,111.416924 183.096680,112.277359 182.981781,113.564911 
	C169.890228,113.662064 156.812820,113.210571 143.731979,113.064468 
	C138.791031,113.009300 133.842194,113.659935 128.474182,113.992577 
z"/>
<path fill="#FABB12" opacity="1.000000" stroke="none" 
	d="
M185.195312,111.074364 
	C184.930008,108.858795 184.778275,106.835854 184.812149,104.406143 
	C186.435471,104.298172 188.022202,104.302223 189.287537,104.941948 
	C200.392654,110.556473 211.427032,116.310669 222.516632,121.956169 
	C224.713715,123.074654 227.017853,124.016365 229.342117,124.844528 
	C234.192673,126.572845 235.006927,129.875854 232.744659,134.581848 
	C221.963745,129.909210 211.746918,124.859665 201.432053,120.019005 
	C196.691483,117.794296 191.758621,115.979271 186.695419,113.793892 
	C186.095703,112.977432 185.713516,112.345543 185.331345,111.713661 
	C185.331345,111.713661 185.308884,111.266998 185.195312,111.074364 
z"/>
<path fill="#00A6E6" opacity="1.000000" stroke="none" 
	d="
M132.447571,132.000671 
	C131.101395,129.376953 130.186493,126.751175 129.009872,123.374214 
	C131.412201,123.219131 133.139526,123.014366 134.867233,123.010902 
	C148.338821,122.983902 161.810745,123.035431 175.281937,122.956902 
	C177.576721,122.943520 179.868576,122.424210 182.569855,122.057671 
	C181.656433,130.476196 181.065842,130.874908 172.592041,131.025345 
	C159.352722,131.260406 146.116440,131.665543 132.447571,132.000671 
z"/>
<path fill="#0182C5" opacity="1.000000" stroke="none" 
	d="
M215.399017,163.678772 
	C215.157700,164.313644 214.859238,164.933792 214.089386,165.904907 
	C213.354492,166.456070 213.135025,166.696472 212.959595,166.977051 
	C212.481766,167.245239 212.003952,167.513443 210.883057,167.822083 
	C207.180679,167.877655 204.118790,167.980988 201.062592,167.891205 
	C192.372452,167.635971 183.684647,167.301956 174.995911,166.998932 
	C175.242859,165.559418 175.489807,164.119919 176.355423,162.344223 
	C187.982895,162.006668 198.991699,162.005280 210.308350,162.181946 
	C212.167236,162.825729 213.718262,163.291458 215.269302,163.757187 
	C215.269302,163.757187 215.341858,163.664032 215.399017,163.678772 
z"/>
<path fill="#067ABD" opacity="1.000000" stroke="none" 
	d="
M174.778717,167.271118 
	C183.684647,167.301956 192.372452,167.635971 201.062592,167.891205 
	C204.118790,167.980988 207.180679,167.877655 210.631744,167.931213 
	C210.359573,168.747040 209.695602,169.494156 208.926025,170.518692 
	C206.142807,171.845139 203.465195,172.894165 200.446167,174.036896 
	C198.617920,173.422241 197.176331,172.238037 195.636002,172.091492 
	C190.231079,171.577255 184.793182,171.252853 179.365616,171.220383 
	C177.521576,171.209335 175.671097,172.276306 173.467682,172.929260 
	C173.595047,171.186325 174.078278,169.364822 174.778717,167.271118 
z"/>
<path fill="#0690CC" opacity="1.000000" stroke="none" 
	d="
M210.000504,162.003891 
	C198.991699,162.005280 187.982895,162.006668 176.510590,162.011353 
	C176.333481,160.588120 176.619858,159.161575 177.440857,157.372574 
	C185.294403,157.007889 192.618561,157.155075 199.928726,156.900818 
	C201.810181,156.835388 203.647705,155.506317 205.505417,154.757751 
	C207.077896,156.506500 208.650360,158.255249 210.145950,160.668396 
	C210.046219,161.556488 210.023361,161.780182 210.000504,162.003891 
z"/>
<path fill="#0093D6" opacity="1.000000" stroke="none" 
	d="
M205.490692,154.763092 
	C203.647705,155.506317 201.810181,156.835388 199.928726,156.900818 
	C192.618561,157.155075 185.294403,157.007889 177.512177,157.014008 
	C177.359695,155.595856 177.670486,154.173813 178.464005,152.379715 
	C181.445160,152.004532 183.965286,152.210541 186.437393,151.953934 
	C191.308212,151.448288 196.152374,150.685989 201.219833,150.055878 
	C201.432098,150.081909 201.850250,150.171799 201.967651,150.335968 
	C202.262695,150.709534 202.478760,150.865860 202.733200,150.969116 
	C202.733200,150.969116 203.074234,151.127701 203.177856,151.603546 
	C203.537918,152.378311 203.794373,152.677246 204.050812,152.976166 
	C204.050827,152.976166 203.998062,152.995209 204.065063,153.283173 
	C204.573227,153.963608 205.014420,154.356064 205.455612,154.748505 
	C205.455612,154.748505 205.475967,154.768433 205.490692,154.763092 
z"/>
<path fill="#00A6E6" opacity="1.000000" stroke="none" 
	d="
M201.007568,150.029846 
	C196.152374,150.685989 191.308212,151.448288 186.437393,151.953934 
	C183.965286,152.210541 181.445160,152.004532 178.479691,152.014191 
	C178.714386,148.075775 179.734116,145.465683 185.090714,146.466232 
	C188.919617,147.181412 193.177383,145.600479 197.816742,145.186859 
	C198.575668,145.577087 198.814331,145.753143 199.170319,146.087402 
	C199.234940,146.317032 199.169510,146.787552 199.270767,147.047760 
	C199.861252,147.554443 200.350494,147.800919 201.002930,148.132446 
	C201.166122,148.217499 201.186890,148.584961 201.127502,148.944366 
	C201.047928,149.545822 201.027756,149.787842 201.007568,150.029846 
z"/>
<path fill="#359EA8" opacity="1.000000" stroke="none" 
	d="
M185.217209,112.106621 
	C185.713516,112.345543 186.095703,112.977432 186.689789,114.176971 
	C188.518677,118.930008 190.135666,123.115379 191.768402,127.654037 
	C192.870285,130.322617 193.956406,132.637894 195.012177,135.281738 
	C195.021622,136.047775 195.061386,136.485275 194.987793,137.015869 
	C194.874420,137.108978 194.646469,137.293701 194.646454,137.293701 
	C191.465332,129.028992 188.284210,120.764290 185.217209,112.106621 
z"/>
<path fill="#359EA8" opacity="1.000000" stroke="none" 
	d="
M197.039612,140.963943 
	C196.305832,139.948593 195.572037,138.933228 194.742355,137.605774 
	C194.646469,137.293701 194.874420,137.108978 195.215744,137.170807 
	C195.997894,137.810425 196.438736,138.388214 196.896423,139.301682 
	C196.955383,140.079559 196.997498,140.521759 197.039612,140.963943 
z"/>
<path fill="#359EA8" opacity="1.000000" stroke="none" 
	d="
M199.105682,145.857773 
	C198.814331,145.753143 198.575668,145.577087 198.235107,145.167023 
	C197.967514,144.432541 197.854492,143.860641 198.130585,143.141281 
	C198.519699,142.993805 198.976608,143.014496 198.986847,143.008057 
	C198.997101,143.001617 198.982071,143.019302 199.010910,143.380524 
	C199.061737,144.447083 199.083710,145.152420 199.105682,145.857773 
z"/>
<path fill="#E5E423" opacity="1.000000" stroke="none" 
	d="
M197.214233,141.044662 
	C196.997498,140.521759 196.955383,140.079559 197.149582,139.460495 
	C197.685730,139.790344 197.985550,140.297089 198.155396,140.898346 
	C198.025406,140.992889 197.768723,141.186386 197.768723,141.186386 
	C197.768723,141.186386 197.388855,141.125381 197.214233,141.044662 
z"/>
<path fill="#E5E423" opacity="1.000000" stroke="none" 
	d="
M198.976608,143.014496 
	C198.976608,143.014496 198.519699,142.993805 198.291107,142.993790 
	C197.968628,142.595840 197.874725,142.197922 197.774780,141.493195 
	C197.768723,141.186386 198.025406,140.992889 198.316467,141.148193 
	C198.730545,141.873825 198.853577,142.444153 198.976608,143.014496 
z"/>
<path fill="#067ABD" opacity="1.000000" stroke="none" 
	d="
M132.421051,85.023964 
	C132.524460,83.904816 132.627853,82.785667 132.675110,81.330231 
	C132.965164,79.872345 133.311356,78.750755 133.820068,77.318466 
	C146.040085,76.988678 158.097610,76.969589 170.634857,76.913834 
	C171.114594,76.877174 171.096298,76.928345 171.189697,77.146835 
	C171.476852,77.630951 171.718552,77.841522 172.008240,77.997040 
	C173.055237,80.720642 174.102234,83.444252 174.787674,86.560699 
	C168.609573,83.360687 162.127777,83.845657 155.740433,84.028061 
	C147.964172,84.250153 140.193909,84.682541 132.421051,85.023964 
z"/>
<path fill="#F6A11A" opacity="1.000000" stroke="none" 
	d="
M237.985535,118.497238 
	C236.120895,118.849503 233.994812,119.342072 232.444748,118.611870 
	C219.869080,112.687729 207.383316,106.570946 194.915894,100.420189 
	C192.410629,99.184235 190.099976,97.553841 187.359573,96.025635 
	C187.701004,89.020996 189.995346,87.878174 195.955536,90.883446 
	C207.841705,96.876747 219.760849,102.823891 231.864700,108.356232 
	C236.401672,110.429962 239.075867,112.848137 237.985535,118.497238 
z"/>
<path fill="#F37F1F" opacity="1.000000" stroke="none" 
	d="
M191.960983,73.953552 
	C192.366440,71.943466 192.771896,69.933388 193.283539,67.560318 
	C196.092102,68.047554 198.936111,68.598228 201.473343,69.797752 
	C215.439682,76.400589 229.331055,83.162033 243.603912,89.925476 
	C243.630447,91.417969 243.301193,92.854057 242.930695,94.663452 
	C242.355881,96.806404 241.822311,98.576042 240.909912,100.418640 
	C238.551193,98.425705 236.932678,95.672668 234.530655,94.409584 
	C222.328003,87.992882 209.937332,81.931839 197.570618,75.831161 
	C195.818405,74.966766 193.836548,74.567894 191.960983,73.953552 
z"/>
<path fill="#F48A1E" opacity="1.000000" stroke="none" 
	d="
M191.761505,74.176369 
	C193.836548,74.567894 195.818405,74.966766 197.570618,75.831161 
	C209.937332,81.931839 222.328003,87.992882 234.530655,94.409584 
	C236.932678,95.672668 238.551193,98.425705 240.761032,100.746597 
	C240.003494,101.768265 238.593155,103.415291 238.089920,103.173607 
	C223.099869,95.974396 208.169632,88.647217 193.342087,81.119400 
	C192.154068,80.516251 191.771759,78.326111 191.021545,76.484665 
	C191.206055,75.530304 191.384033,74.964745 191.761505,74.176369 
z"/>
<path fill="#FAC70C" opacity="1.000000" stroke="none" 
	d="
M191.752655,127.300751 
	C190.135666,123.115379 188.518677,118.930008 186.907318,114.361549 
	C191.758621,115.979271 196.691483,117.794296 201.432053,120.019005 
	C211.746918,124.859665 221.963745,129.909210 232.571228,134.938385 
	C232.289932,137.074234 231.658051,139.145081 231.001572,141.580933 
	C230.786972,142.491089 230.596939,143.036255 230.113068,143.455872 
	C228.940704,142.355774 228.247070,141.015259 227.154953,140.463516 
	C216.808151,135.236298 206.384277,130.161880 196.004959,124.998512 
	C193.385620,123.695488 192.343781,125.009125 191.752655,127.300751 
z"/>
<path fill="#F06420" opacity="1.000000" stroke="none" 
	d="
M197.205780,59.088642 
	C197.363647,57.428497 197.851257,55.928883 199.000076,54.195946 
	C201.617203,54.240040 203.771698,54.082195 205.495453,54.868561 
	C213.946152,58.723724 222.424698,62.563896 230.608368,66.942131 
	C235.990158,69.821365 240.888290,73.604668 246.003006,76.983116 
	C245.988937,78.051346 245.974884,79.119576 245.911850,80.585632 
	C240.058777,78.724525 234.128082,76.741287 228.478043,74.146812 
	C218.076797,69.370583 207.840546,64.234993 197.205780,59.088642 
z"/>
<path fill="#8AC544" opacity="1.000000" stroke="none" 
	d="
M118.572067,165.979630 
	C118.694839,167.424683 118.427498,168.848770 117.700546,170.614929 
	C114.874878,170.300278 112.544876,169.432755 110.136940,169.020920 
	C94.129807,166.283249 78.105988,163.643112 62.087601,160.971237 
	C62.233391,159.498947 62.379181,158.026657 62.758423,156.269196 
	C79.001007,158.660233 95.015358,161.306030 111.013718,164.045181 
	C113.441177,164.460785 115.794403,165.310013 118.572067,165.979630 
z"/>
<path fill="#BED73D" opacity="1.000000" stroke="none" 
	d="
M113.075745,192.755981 
	C112.445671,194.141190 111.853340,195.278488 111.119278,196.712677 
	C97.917412,195.010010 84.868019,192.935837 71.791000,191.053619 
	C67.541016,190.441910 63.218800,190.331985 58.475655,189.985168 
	C58.327652,188.236084 58.633610,186.494354 59.402279,184.374512 
	C77.623734,186.666687 95.382477,189.336975 113.141220,192.007263 
	C113.131989,192.174194 113.122749,192.341125 113.075745,192.755981 
z"/>
<path fill="#EB3521" opacity="1.000000" stroke="none" 
	d="
M251.790771,56.045715 
	C251.812698,57.478275 251.445786,58.875572 250.642044,60.469261 
	C246.349609,59.215981 242.372574,58.022453 238.663284,56.264122 
	C230.566666,52.426064 222.540146,48.425037 214.629044,44.219593 
	C212.151169,42.902386 210.134003,40.718487 207.905960,38.931305 
	C208.408768,38.343742 208.911560,37.756172 209.663666,37.015198 
	C213.813446,38.510185 217.792465,39.996368 221.598602,41.839573 
	C230.478409,46.139828 239.266830,50.628448 248.116684,54.991241 
	C249.132401,55.491970 250.303101,55.678329 251.790771,56.045715 
z"/>
<path fill="#FCD204" opacity="1.000000" stroke="none" 
	d="
M191.768402,127.654037 
	C192.343781,125.009125 193.385620,123.695488 196.004959,124.998512 
	C206.384277,130.161880 216.808151,135.236298 227.154953,140.463516 
	C228.247070,141.015259 228.940704,142.355774 229.904572,143.660049 
	C229.160553,145.847977 228.331207,147.706207 227.024445,149.538696 
	C216.045532,144.659714 205.544037,139.806442 195.042526,134.953186 
	C193.956406,132.637894 192.870285,130.322617 191.768402,127.654037 
z"/>
<path fill="#FCE002" opacity="1.000000" stroke="none" 
	d="
M195.012177,135.281738 
	C205.544037,139.806442 216.045532,144.659714 226.774902,149.763824 
	C226.185944,151.978775 225.741592,154.262177 224.425049,155.797821 
	C223.504333,156.871780 221.068756,157.755280 219.865921,157.289047 
	C214.381790,155.163300 209.094376,152.530060 203.364090,150.037079 
	C202.991928,149.994888 203.001007,149.969086 203.028046,149.611237 
	C201.697418,147.175354 200.339752,145.097336 198.982071,143.019302 
	C198.982071,143.019302 198.997101,143.001617 198.986847,143.008057 
	C198.853577,142.444153 198.730545,141.873825 198.446442,141.053650 
	C197.985550,140.297089 197.685730,139.790344 197.132736,139.124802 
	C196.438736,138.388214 195.997894,137.810425 195.329117,137.077698 
	C195.061386,136.485275 195.021622,136.047775 195.012177,135.281738 
z"/>
<path fill="#067ABD" opacity="1.000000" stroke="none" 
	d="
M210.308350,162.181946 
	C210.023361,161.780182 210.046219,161.556488 210.116577,160.999390 
	C211.731934,161.514664 213.299805,162.363327 215.068481,163.484589 
	C213.718262,163.291458 212.167236,162.825729 210.308350,162.181946 
z"/>
<path fill="#0690CC" opacity="1.000000" stroke="none" 
	d="
M205.405060,154.446564 
	C205.014420,154.356064 204.573227,153.963608 204.083755,153.262207 
	C204.475128,153.350372 204.914810,153.747498 205.405060,154.446564 
z"/>
<path fill="#0690CC" opacity="1.000000" stroke="none" 
	d="
M204.007599,152.669067 
	C203.794373,152.677246 203.537918,152.378311 203.199310,151.790359 
	C203.399551,151.788223 203.681976,152.075104 204.007599,152.669067 
z"/>
<path fill="#0690CC" opacity="1.000000" stroke="none" 
	d="
M202.789856,150.722107 
	C202.478760,150.865860 202.262695,150.709534 202.018555,150.277008 
	C201.952087,150.053848 202.056564,149.941330 202.292206,149.963943 
	C202.527863,149.986557 203.001007,149.969086 203.001007,149.969086 
	C203.001007,149.969086 202.991928,149.994888 203.005737,149.996765 
	C202.961868,150.157455 202.904190,150.316269 202.789856,150.722107 
z"/>
<path fill="#ED4C21" opacity="1.000000" stroke="none" 
	d="
M207.644394,39.076385 
	C210.134003,40.718487 212.151169,42.902386 214.629044,44.219593 
	C222.540146,48.425037 230.566666,52.426064 238.663284,56.264122 
	C242.372574,58.022453 246.349609,59.215981 250.537003,60.816910 
	C249.960648,63.412872 249.052505,65.857574 247.697876,68.628624 
	C236.908127,63.839127 226.514786,58.821056 216.244370,53.562901 
	C211.659088,51.215359 207.320862,48.385273 202.870499,45.774189 
	C203.319794,44.501984 203.769089,43.229782 204.330902,41.645142 
	C204.620026,41.105518 204.802521,40.883190 205.134552,40.505737 
	C205.979706,39.970997 206.681274,39.596233 207.644394,39.076385 
z"/>
<path fill="#A1CD42" opacity="1.000000" stroke="none" 
	d="
M116.993744,176.990234 
	C116.671211,178.417618 116.348686,179.845016 115.578690,181.633301 
	C105.083420,180.405640 95.048897,178.726105 84.983673,177.256882 
	C76.696587,176.047211 68.373116,175.086884 60.065769,174.016052 
	C60.276115,172.230072 60.486458,170.444092 61.303947,168.321594 
	C70.894783,169.144196 79.918114,170.061859 88.851295,171.528595 
	C98.276924,173.076202 107.616547,175.147644 116.993744,176.990234 
z"/>
<path fill="#96C943" opacity="1.000000" stroke="none" 
	d="
M117.011566,176.606415 
	C107.616547,175.147644 98.276924,173.076202 88.851295,171.528595 
	C79.918114,170.061859 70.894783,169.144196 61.465569,167.970764 
	C61.344597,165.890305 61.669155,163.824142 62.040657,161.364594 
	C78.105988,163.643112 94.129807,166.283249 110.136940,169.020920 
	C112.544876,169.432755 114.874878,170.300278 117.634171,170.972351 
	C117.694725,172.732651 117.362045,174.477615 117.011566,176.606415 
z"/>
<path fill="#B3D341" opacity="1.000000" stroke="none" 
	d="
M113.353523,191.714188 
	C95.382477,189.336975 77.623734,186.666687 59.423199,183.993622 
	C58.994747,182.584427 59.008083,181.178024 59.010201,179.346130 
	C59.010639,178.503876 59.022297,178.087112 59.308975,177.580719 
	C60.259930,177.935394 60.895027,178.679825 61.618046,178.778214 
	C70.068886,179.928253 78.563629,180.786316 86.985214,182.112442 
	C96.080185,183.544632 105.110046,185.390335 114.168304,187.055649 
	C113.967484,188.510803 113.766655,189.965958 113.353523,191.714188 
z"/>
<path fill="#AAD040" opacity="1.000000" stroke="none" 
	d="
M114.376541,186.794846 
	C105.110046,185.390335 96.080185,183.544632 86.985214,182.112442 
	C78.563629,180.786316 70.068886,179.928253 61.618046,178.778214 
	C60.895027,178.679825 60.259930,177.935394 59.326096,177.267670 
	C59.299210,176.225647 59.530220,175.407028 59.913498,174.302216 
	C68.373116,175.086884 76.696587,176.047211 84.983673,177.256882 
	C95.048897,178.726105 105.083420,180.405640 115.554337,182.003586 
	C115.513214,183.520004 115.048996,185.027023 114.376541,186.794846 
z"/>
<path fill="#EE5720" opacity="1.000000" stroke="none" 
	d="
M202.608536,45.854698 
	C207.320862,48.385273 211.659088,51.215359 216.244370,53.562901 
	C226.514786,58.821056 236.908127,63.839127 247.608780,68.976181 
	C247.366440,71.418533 246.766724,73.839691 246.085007,76.621979 
	C240.888290,73.604668 235.990158,69.821365 230.608368,66.942131 
	C222.424698,62.563896 213.946152,58.723724 205.495453,54.868561 
	C203.771698,54.082195 201.617203,54.240040 199.220490,53.936943 
	C199.563156,51.604397 200.346588,49.297539 201.224030,46.647903 
	C201.660889,46.181816 202.003723,46.058514 202.608536,45.854698 
z"/>
<path fill="#0182C5" opacity="1.000000" stroke="none" 
	d="
M132.299500,85.414322 
	C140.193909,84.682541 147.964172,84.250153 155.740433,84.028061 
	C162.127777,83.845657 168.609573,83.360687 174.837860,86.938042 
	C176.414276,89.403023 177.578964,91.883492 178.896851,94.688934 
	C179.032791,95.181358 179.015518,95.348793 178.604752,95.685562 
	C175.367249,95.247414 172.530533,94.158531 169.677948,94.115196 
	C156.854889,93.920357 144.027298,94.022453 131.201355,94.017456 
	C131.132721,93.843010 131.064087,93.668571 130.877136,93.238342 
	C131.231857,90.589943 131.704895,88.197311 132.299500,85.414322 
z"/>
<path fill="#018BCD" opacity="1.000000" stroke="none" 
	d="
M131.077667,94.410797 
	C144.027298,94.022453 156.854889,93.920357 169.677948,94.115196 
	C172.530533,94.158531 175.367249,95.247414 178.581879,95.937012 
	C179.631088,98.095474 180.309677,100.171822 180.982559,102.617981 
	C164.223236,103.320282 147.469620,103.652771 130.244354,103.973511 
	C130.166443,100.909218 130.560211,97.856682 131.077667,94.410797 
z"/>
<path fill="#0F75B8" opacity="1.000000" stroke="none" 
	d="
M171.896683,77.779480 
	C171.718552,77.841522 171.476852,77.630951 171.163757,77.154610 
	C171.360016,77.067558 171.606918,77.273560 171.896683,77.779480 
z"/>
<path fill="#067ABD" opacity="1.000000" stroke="none" 
	d="
M213.181152,166.866547 
	C213.135025,166.696472 213.354492,166.456070 213.829193,166.130585 
	C213.880753,166.300507 213.668198,166.550751 213.181152,166.866547 
z"/>
<path fill="#0690CC" opacity="1.000000" stroke="none" 
	d="
M201.219833,150.055878 
	C201.027756,149.787842 201.047928,149.545822 201.383087,149.085266 
	C201.817566,149.224930 201.937057,149.583130 202.056564,149.941330 
	C202.056564,149.941330 201.952087,150.053848 201.901169,150.112823 
	C201.850250,150.171799 201.432098,150.081909 201.219833,150.055878 
z"/>
<path fill="#E5E423" opacity="1.000000" stroke="none" 
	d="
M202.292206,149.963943 
	C201.937057,149.583130 201.817566,149.224930 201.442474,148.725845 
	C201.186890,148.584961 201.166122,148.217499 200.963135,147.832794 
	C200.229935,147.227905 199.699722,147.007721 199.169510,146.787552 
	C199.169510,146.787552 199.234940,146.317032 199.170319,146.087402 
	C199.083710,145.152420 199.061737,144.447083 199.010910,143.380524 
	C200.339752,145.097336 201.697418,147.175354 203.028046,149.611237 
	C203.001007,149.969086 202.527863,149.986557 202.292206,149.963943 
z"/>
<path fill="#0690CC" opacity="1.000000" stroke="none" 
	d="
M199.270767,147.047760 
	C199.699722,147.007721 200.229935,147.227905 200.799927,147.747742 
	C200.350494,147.800919 199.861252,147.554443 199.270767,147.047760 
z"/>
</svg>